<svg width="1536" height="1195" viewBox="0 0 1536 1195" fill="none" xmlns="http://www.w3.org/2000/svg">
<path d="M0 0H1536V1195H0V0Z" fill="black"/>
<path d="M1074 598C1074 766.999 936.999 904 768 904C599.001 904 462 766.999 462 598C462 429.001 599.001 292 768 292C936.999 292 1074 429.001 1074 598Z" fill="white"/>
<path d="M754.834 510.596C715.901 513.929 674.834 533.529 644.967 562.996C630.434 577.262 615.634 596.462 617.101 599.129C620.701 605.262 637.101 624.329 647.101 633.796C696.167 679.929 760.567 696.196 818.967 677.129C840.434 670.062 865.367 655.529 884.167 639.262C896.967 628.062 913.234 609.396 919.234 598.862C920.701 596.462 905.101 576.329 890.701 562.329C853.101 525.129 803.767 506.329 754.834 510.596ZM804.567 530.862C836.967 539.396 867.367 559.129 891.634 587.662L900.167 597.529L895.901 602.996C888.301 612.596 869.901 629.796 857.901 638.329C829.767 658.462 800.834 668.196 769.501 668.196C725.634 668.196 685.367 649.662 650.434 613.262C643.367 605.796 637.501 599.129 637.501 598.329C637.501 595.796 650.567 580.196 660.434 571.129C683.501 549.796 714.434 534.062 744.567 528.329C759.901 525.396 788.434 526.729 804.567 530.862Z" fill="black"/>
<path d="M755.501 537.262C737.367 540.996 721.368 553.529 712.834 570.996C708.568 579.529 707.767 582.596 707.234 592.729C705.101 629.796 731.901 658.329 769.101 658.462C786.301 658.462 801.101 652.062 813.101 639.529C829.367 622.196 834.701 596.729 826.301 576.462L824.034 571.129L821.634 576.462C815.501 590.062 795.101 590.462 788.034 577.129C782.568 567.129 786.167 556.062 796.701 550.329L802.967 546.862L799.501 544.596C789.368 537.929 768.834 534.596 755.501 537.262ZM775.501 579.796C778.434 581.262 781.901 584.196 783.234 586.329C785.634 590.462 786.301 600.596 784.301 603.662C783.367 605.129 784.701 607.662 789.234 612.862C795.234 619.796 795.368 620.196 792.834 622.062C790.434 623.796 789.768 623.396 784.568 618.062L778.967 612.062L770.568 612.729C763.768 613.129 761.367 612.729 757.901 610.596C745.634 602.862 747.368 584.996 760.834 578.996C766.301 576.596 769.101 576.729 775.501 579.796Z" fill="black"/>
<path d="M759.501 587.129C754.434 592.062 754.834 599.796 760.301 604.329C762.567 606.196 765.501 607.796 766.967 607.796C771.501 607.796 777.101 604.062 778.834 599.796C783.501 588.462 768.167 578.329 759.501 587.129Z" fill="black"/>
</svg>
